# xmcd
# 
# Track frame offsets:
#     150
#     23560
#     43917
#     58243
# 
# Disc length: 961
# 
# Revision: 0
# Processed by: cddbd v1.5.2PL0 Copyright (c) Steve Scherf et al.
# Submitted via: BonkEnc v1.0.8
# 
DISCID=3003bf04
DTITLE=Shallow and the Deep - Demo EP
DYEAR=2005
DGENRE=Hip-Hop
TTITLE0=Routines
TTITLE1=Somethin
TTITLE2=Uninspired
TTITLE3=Oppressed
EXTD=
EXTT0=
EXTT1=
EXTT2=
EXTT3=
PLAYORDER=
